<?xml version="1.0" encoding="iso-8859-1"?>
<!-- Uploaded to: SVG Repo, www.svgrepo.com, Generator: SVG Repo Mixer Tools -->
<svg fill="#000000" height="800px" width="800px" version="1.1" id="Capa_1" xmlns="http://www.w3.org/2000/svg" xmlns:xlink="http://www.w3.org/1999/xlink" 
	 viewBox="0 0 472 472" xml:space="preserve">
<g>
	<path d="M364,456h-8v-76.156c0-6.85-0.859-20.331-2.275-37.904c0.679-2.094,0.448-4.289-0.503-6.13
		c-6.877-82.553-24.211-241.167-25.124-249.492C327.654,82.26,324.228,79,320.146,79c0,0-0.001,0-0.002,0
		c-4.082,0-7.508,3.263-7.951,7.322c-0.118,1.084-10.158,93.435-18.144,174.583l-0.066-0.026
		c-7.026-98.923-17.604-228.491-17.741-230.173c-0.34-4.152-3.808-7.348-7.974-7.348s-7.634,3.196-7.974,7.348
		c-0.099,1.217-8.438,103.338-15.21,195.194c-1.393-1.147-3.172-1.826-5.085-1.826c-1.851,0-3.575,0.638-4.947,1.719
		c-6.771-91.828-15.103-193.87-15.203-195.087c-0.34-4.152-3.808-7.348-7.974-7.348s-7.634,3.196-7.974,7.348
		c-0.138,1.685-10.744,131.615-17.771,230.589l-0.076,0.03c-8-81.251-18.103-173.919-18.221-175.005
		c-0.443-4.057-3.87-7.32-7.951-7.32c-0.001,0-0.001,0-0.002,0c-4.081,0-7.507,3.26-7.952,7.316
		c-0.914,8.333-18.303,167.279-25.172,249.757c-0.806,1.71-1.014,3.697-0.461,5.615c-1.43,17.697-2.297,31.273-2.297,38.155V456h-16
		c-4.418,0-8,3.582-8,8s3.582,8,8,8h256c4.418,0,8-3.582,8-8S368.418,456,364,456z M300,416c-4.418,0-8,3.582-8,8v32h-8v-31.066
		c0-8.68,8.203-26.28,16-40.357c7.797,14.078,16,31.678,16,40.357V456h-8v-32C308,419.582,304.418,416,300,416z M252,416
		c-4.418,0-8,3.582-8,8v32h-8v-32c0-4.418-3.582-8-8-8s-8,3.582-8,8v32h-8v-31.066c0-5.697,8.744-24.912,28-51.464
		c19.256,26.553,28,45.768,28,51.464V456h-8v-32C260,419.582,256.418,416,252,416z M180,416c-4.418,0-8,3.582-8,8v32h-8v-31.066
		c0-8.68,8.203-26.28,16-40.357c7.797,14.078,16,31.678,16,40.357V456h-8v-32C188,419.582,184.418,416,180,416z M146.563,294.421
		l25.63-10.289c0.056,0.578,0.111,1.157,0.166,1.733c-0.078,0.254-0.148,0.513-0.202,0.778c-0.735,3.638-3.166,15.724-6.221,31.391
		l-22.347,8.971C144.469,316.934,145.474,305.958,146.563,294.421z M336.409,326.96l-22.356-8.974
		c-3.051-15.644-5.478-27.709-6.212-31.343c-0.043-0.214-0.097-0.424-0.156-0.63c0.073-0.765,0.147-1.534,0.221-2.303l25.491,10.233
		C334.502,305.638,335.52,316.763,336.409,326.96z M282.779,334.374c-2.329,12.169-4.79,25.297-7.021,37.756
		c-3.221-17.519-7.044-37.38-10.821-56.62l17.134,6.878C282.328,326.592,282.565,330.595,282.779,334.374z M198.075,322.373
		l16.979-6.816c-3.774,19.225-7.593,39.068-10.812,56.573c-2.196-12.26-4.613-25.167-6.91-37.172
		C197.556,331.005,197.804,326.799,198.075,322.373z M240,272.186c6.986,34.676,14.387,72.353,19.825,101.754
		c-5.955-8.779-11.265-15.834-13.475-18.717c-1.514-1.975-3.861-3.133-6.35-3.133s-4.835,1.158-6.35,3.133
		c-2.21,2.883-7.52,9.938-13.475,18.717C225.613,344.539,233.014,306.862,240,272.186z M297.831,340.947
		c0.772-1.312,1.181-2.857,1.09-4.491c-0.017-0.311-0.035-0.629-0.053-0.943c0.379-1.98,0.757-3.949,1.131-5.89
		c2.15,11.152,4.402,23.043,6.517,34.546c-1.494-2.11-3.913-3.388-6.517-3.388c-2.604,0-5.023,1.278-6.517,3.387
		C294.895,356.488,296.368,348.638,297.831,340.947z M280.949,304.696l-19.712-7.913c-1.318-6.636-2.603-13.063-3.824-19.149
		c0.313-4.511,0.638-9.13,0.969-13.806l20.346,8.168C279.534,283.5,280.282,294.489,280.949,304.696z M222.695,277.096
		c-1.256,6.259-2.581,12.886-3.941,19.734l-19.556,7.851c0.659-10.081,1.397-20.921,2.191-32.269l20.403-8.191
		C222.1,268.578,222.402,272.883,222.695,277.096z M180.001,329.629c0.411,2.131,0.826,4.292,1.242,6.469
		c-0.007,0.118-0.013,0.24-0.02,0.357c-0.081,1.463,0.244,2.852,0.865,4.07c1.49,7.825,2.99,15.822,4.428,23.642
		c-1.494-2.11-3.913-3.388-6.517-3.388c-2.604,0-5.023,1.278-6.517,3.387c2.114-11.5,4.366-23.388,6.515-34.538L180.001,329.629z
		 M332,424.934c0-10.759-7.619-53.048-14.339-88.259l20.247,8.128c1.306,16.299,2.092,28.729,2.092,35.04V456h-8V424.934z
		 M320.161,162.687c3.608,34.296,7.872,75.657,11.521,113.325l-22.165-8.898C312.962,231.966,316.841,194.328,320.161,162.687z
		 M268.268,132.131c2.987,38.286,6.346,82.301,9.202,122.118l-17.888-7.181C262.316,209.253,265.455,168.172,268.268,132.131z
		 M211.877,132.131c2.823,36.167,5.974,77.407,8.714,115.33l-17.946,7.204C205.508,214.738,208.88,170.55,211.877,132.131z
		 M159.871,162.568c3.342,31.797,7.25,69.658,10.711,104.969l-22.303,8.953C151.946,238.65,156.241,197.032,159.871,162.568z
		 M140,379.844c0-6.305,0.785-18.719,2.09-34.996l20.24-8.125c-6.404,33.553-13.617,73.504-14.279,86.486
		c-0.002,0.035-0.003,0.068-0.005,0.103c-0.029,0.596-0.047,1.147-0.047,1.622V456h-8V379.844z"/>
	<path d="M212,17c4.418,0,8-3.582,8-8V8c0-4.418-3.582-8-8-8s-8,3.582-8,8v1C204,13.418,207.582,17,212,17z"/>
	<path d="M268,17c4.418,0,8-3.582,8-8V8c0-4.418-3.582-8-8-8s-8,3.582-8,8v1C260,13.418,263.582,17,268,17z"/>
	<path d="M320,73c4.418,0,8-3.582,8-8v-1c0-4.418-3.582-8-8-8s-8,3.582-8,8v1C312,69.418,315.582,73,320,73z"/>
	<path d="M160,73c4.418,0,8-3.582,8-8v-1c0-4.418-3.582-8-8-8s-8,3.582-8,8v1C152,69.418,155.582,73,160,73z"/>
</g>
</svg>